# xmcd
#
# Track frame offsets: 
#        150
#        27277
#        63500
#        87982
#
# Disc length: 1506 seconds
#
# Revision: 0
# Processed by: cddbd v1.5.2PL0 Copyright (c) Steve Scherf et al.
# Submitted via: ExactAudioCopyFreeDBPlugin 1.0
#
DISCID=2c05e004
DTITLE=Guy - I Wanna Get With U [CDM)
DYEAR=1990
DGENRE=R&B
TTITLE0=I Wanna Get With U (12'' Version)
TTITLE1=I Wanna Get With U (Club Version)
TTITLE2=I Wanna Get With U (Hip Hop Version)
TTITLE3=I Wanna Get With U (TR's Dub)
EXTD=US MAXI CD
EXTT0=
EXTT1=
EXTT2=
EXTT3=
PLAYORDER=
